<svg width="40" height="40" viewBox="0 0 40 40" fill="none" xmlns="http://www.w3.org/2000/svg">
<path d="M32.475 33.5899L22.0383 23.1533C21.205 23.8633 20.2467 24.4127 19.1633 24.8016C18.08 25.1905 16.9911 25.3849 15.8967 25.3849C13.2278 25.3849 10.9689 24.4611 9.12001 22.6133C7.27112 20.7644 6.34668 18.5061 6.34668 15.8383C6.34668 13.1705 7.27001 10.9111 9.11668 9.05995C10.9645 7.20773 13.2222 6.28162 15.89 6.28162C18.5589 6.28162 20.8189 7.20606 22.67 9.05495C24.5211 10.9038 25.4467 13.1633 25.4467 15.8333C25.4467 16.9911 25.2417 18.1116 24.8317 19.1949C24.4206 20.2783 23.8817 21.2049 23.215 21.9749L33.6517 32.4099L32.475 33.5899ZM15.8967 23.7166C18.1078 23.7166 19.975 22.9555 21.4983 21.4333C23.0206 19.9111 23.7817 18.0438 23.7817 15.8316C23.7817 13.6205 23.0206 11.7538 21.4983 10.2316C19.9761 8.70939 18.1095 7.94828 15.8983 7.94828C13.6872 7.94828 11.82 8.70939 10.2967 10.2316C8.77446 11.7538 8.01335 13.6205 8.01335 15.8316C8.01335 18.0427 8.77446 19.9094 10.2967 21.4316C11.8189 22.9538 13.6856 23.7166 15.8967 23.7166Z" fill="#F85606"/>
</svg>
