<svg width="22" height="22" viewBox="0 0 22 22" fill="none" xmlns="http://www.w3.org/2000/svg">
<path d="M7.36454 11.258C7.36454 10.5625 7.56781 9.8826 7.94862 9.30438C8.32944 8.72616 8.87068 8.27561 9.50385 8.00973C10.137 7.74386 10.8337 7.67461 11.5056 7.81075C12.1776 7.9469 12.7947 8.28231 13.2787 8.77456C13.7628 9.2668 14.0922 9.89375 14.2251 10.5761C14.358 11.2584 14.2886 11.9654 14.0255 12.6076C13.7625 13.2498 13.3176 13.7984 12.7473 14.1839C12.177 14.5694 11.5068 14.7745 10.8216 14.7733C10.3671 14.7733 9.91702 14.6823 9.49719 14.5056C9.07736 14.3288 8.69599 14.0698 8.3749 13.7433C8.0538 13.4168 7.79929 13.0292 7.62592 12.6028C7.45255 12.1763 7.36373 11.7193 7.36454 11.258ZM5.51587 11.258C5.51465 12.3284 5.82623 13.375 6.41119 14.2656C6.99616 15.1562 7.82821 15.8506 8.8021 16.2611C9.77598 16.6716 10.8479 16.7796 11.8823 16.5716C12.9167 16.3635 13.8671 15.8487 14.6131 15.0923C15.3592 14.3358 15.8675 13.3718 16.0737 12.3221C16.2798 11.2724 16.1747 10.1842 15.7714 9.1952C15.3681 8.20619 14.6849 7.36082 13.8082 6.76603C12.9315 6.17124 11.9007 5.85376 10.8462 5.85376C9.43358 5.85376 8.07872 6.42293 7.07926 7.43624C6.07981 8.44956 5.5175 9.82413 5.51587 11.258ZM15.1413 5.62858C15.1413 5.876 15.2136 6.11787 15.349 6.32359C15.4844 6.52931 15.6769 6.68966 15.9021 6.78434C16.1273 6.87902 16.3751 6.9038 16.6142 6.85553C16.8533 6.80726 17.0729 6.68811 17.2452 6.51316C17.4176 6.33821 17.535 6.1153 17.5825 5.87264C17.6301 5.62997 17.6057 5.37844 17.5124 5.14985C17.4191 4.92127 17.2611 4.72589 17.0585 4.58843C16.8558 4.45097 16.6175 4.3776 16.3737 4.3776C16.0469 4.3776 15.7334 4.5094 15.5023 4.744C15.2711 4.97861 15.1413 5.2968 15.1413 5.62858ZM6.63123 19.8335C5.97208 19.8309 5.31875 19.708 4.70245 19.4707C4.25506 19.2957 3.84858 19.0279 3.50902 18.6843C3.16947 18.3407 2.90431 17.929 2.73053 17.4754C2.50353 16.8479 2.38269 16.186 2.37312 15.5176C2.32382 14.4105 2.3115 14.0727 2.3115 11.258C2.3115 8.44329 2.3115 8.13055 2.37312 7.00466C2.38269 6.33628 2.50353 5.67436 2.73053 5.04688C2.90259 4.59156 3.16706 4.17806 3.50679 3.83323C3.84651 3.4884 4.25388 3.21995 4.70245 3.0453C5.32045 2.81419 5.97268 2.69151 6.63123 2.68252C7.72195 2.63248 8.04855 2.61997 10.8216 2.61997C13.5946 2.61997 13.9027 2.61997 15.0181 2.68252C15.6765 2.69295 16.3285 2.81558 16.9468 3.0453C17.3954 3.21627 17.8015 3.48534 18.1361 3.83342C18.4826 4.17263 18.7482 4.58766 18.9126 5.04688C19.1427 5.6735 19.2636 6.33597 19.27 7.00466C19.3193 8.11178 19.3316 8.44955 19.3316 11.258C19.3316 14.0665 19.3316 14.3855 19.27 15.5176C19.2636 16.1863 19.1427 16.8488 18.9126 17.4754C18.7499 17.9337 18.4841 18.3471 18.1361 18.6826C17.8032 19.0328 17.3966 19.3022 16.9468 19.4707C16.3302 19.707 15.6771 19.8298 15.0181 19.8335C13.9212 19.8898 13.5946 19.896 10.8216 19.896C8.04855 19.896 7.74044 19.896 6.63123 19.8335ZM6.54496 0.787281C5.68382 0.805149 4.83178 0.970083 4.0246 1.27516C3.33476 1.54641 2.70827 1.96076 2.18516 2.49173C1.66205 3.02271 1.25384 3.65862 0.986612 4.35884C0.686728 5.17835 0.524261 6.04308 0.505957 6.91709C0.456659 8.04298 0.444336 8.39951 0.444336 11.258C0.444336 14.1165 0.444335 14.4793 0.505957 15.6364C0.524261 16.5105 0.686728 17.3752 0.986612 18.1947C1.24811 18.8999 1.6558 19.5398 2.18209 20.0712C2.70334 20.6082 3.33444 21.0224 4.03076 21.2846C4.83749 21.5922 5.68959 21.7593 6.55113 21.7788C7.65417 21.8288 8.01157 21.8413 10.8277 21.8413C13.6439 21.8413 14.0013 21.8413 15.1043 21.7788C15.9659 21.7593 16.818 21.5922 17.6247 21.2846C18.321 21.0224 18.9521 20.6082 19.4734 20.0712C19.9996 19.5398 20.4073 18.8999 20.6688 18.1947C20.9717 17.376 21.1343 16.5108 21.1495 15.6364C21.1988 14.5106 21.2111 14.154 21.2111 11.258C21.2111 8.36198 21.2111 8.04298 21.1495 6.91709C21.1343 6.04275 20.9717 5.1775 20.6688 4.35884C20.4016 3.65862 19.9934 3.02271 19.4703 2.49173C18.9472 1.96076 18.3207 1.54641 17.6308 1.27516C16.8256 0.970657 15.9757 0.80573 15.1166 0.787281C14.0074 0.737242 13.6562 0.724731 10.8031 0.724731C7.94995 0.724731 7.62952 0.724732 6.52648 0.787281H6.54496Z" fill="white"/>
</svg>
