<svg width="21" height="17" viewBox="0 0 21 17" fill="none" xmlns="http://www.w3.org/2000/svg">
<path d="M6.53556 16.8898C14.0412 16.8898 18.1514 10.5973 18.1514 5.14306C18.1514 4.96792 18.1514 4.79278 18.1514 4.61139C18.9507 4.02856 19.6396 3.30384 20.1849 2.47221C19.4401 2.79993 18.6505 3.01084 17.8433 3.0977C18.6962 2.58515 19.3342 1.77282 19.6365 0.814656C18.8354 1.29499 17.9605 1.6354 17.0483 1.8217C16.4877 1.21844 15.762 0.799346 14.9647 0.618391C14.1674 0.437436 13.335 0.502906 12.5746 0.80637C11.8143 1.10983 11.1608 1.63739 10.6985 2.32111C10.2361 3.00483 9.98594 3.81339 9.98025 4.64266C9.97916 4.95884 10.0164 5.27396 10.0912 5.5809C8.4691 5.50047 6.88172 5.07532 5.43172 4.33295C3.98172 3.59058 2.70139 2.54753 1.67355 1.27127C1.14725 2.17592 0.98171 3.25063 1.21085 4.27517C1.43999 5.29971 2.04646 6.19652 2.906 6.78184C2.25777 6.76111 1.62386 6.5831 1.05732 6.26269V6.31898C1.05916 7.27408 1.38672 8.19908 1.98434 8.93682C2.58196 9.67455 3.41278 10.1795 4.33564 10.3659C3.98374 10.4606 3.6213 10.5089 3.25725 10.5098C2.9987 10.5102 2.74072 10.4851 2.48697 10.4347C2.74985 11.2559 3.25867 11.9732 3.94246 12.4868C4.62625 13.0003 5.45091 13.2844 6.3014 13.2995C4.86015 14.4551 3.07889 15.0872 1.24219 15.0946C0.916863 15.0944 0.591803 15.0756 0.268555 15.0383C2.13602 16.2581 4.30869 16.9093 6.5294 16.9148L6.53556 16.8898Z" fill="white"/>
</svg>
